<svg version="1.2" xmlns="http://www.w3.org/2000/svg" viewBox="0 0 512 512" width="512" height="512"><style>.a{fill:#fff}</style><path fill-rule="evenodd" class="a" d="m500.3 500.3c-15.6 15.7-41 15.7-56.6 0l-119.7-119.7c-40.4 27.3-90.9 40.7-144.7 33.5-91.5-12.2-166-87.3-177.6-178.9-17.2-136.2 97.3-250.7 233.5-233.5 91.6 11.6 166.6 86.1 178.9 177.6 7.1 53.8-6.3 104.3-33.5 144.7l119.7 119.7c15.6 15.6 15.6 41 0 56.6zm-293.2-164.3c70.6 0 128-57.4 128-128 0-70.6-57.4-128-128-128-70.6 0-128 57.4-128 128 0 70.6 57.4 128 128 128z"/></svg>